# Blender v2.80 (sub 75) OBJ File: ''
# www.blender.org
o Cube
v 133.463791 1.106685 -111.665672
v 133.463791 -0.893315 -111.665672
v 133.463791 1.106685 111.665672
v 133.463791 -0.893315 111.665672
v -133.463791 1.106685 -111.665672
v -133.463791 -0.893315 -111.665672
v -133.463791 1.106685 111.665672
v -133.463791 -0.893315 111.665672
vt 0.625000 0.000000
vt 0.375000 0.250000
vt 0.375000 0.000000
vt 0.625000 0.250000
vt 0.375000 0.500000
vt 0.375000 0.250000
vt 0.625000 0.500000
vt 0.375000 0.750000
vt 0.625000 0.750000
vt 0.375000 1.000000
vt 0.375000 0.500000
vt 0.125000 0.750000
vt 0.125000 0.500000
vt 0.875000 0.500000
vt 0.625000 0.500000
vt 0.625000 0.250000
vt 0.625000 0.750000
vt 0.625000 1.000000
vt 0.375000 0.750000
vt 0.875000 0.750000
vn -0.5773 0.5773 -0.5773
vn 0.5773 0.5773 0.5773
vn 0.5773 0.5773 -0.5773
vn -0.5773 -0.5773 0.5773
vn 0.5773 -0.5773 0.5773
vn -0.5773 0.5773 0.5773
vn -0.5773 -0.5773 -0.5773
vn 0.5773 -0.5773 -0.5773
s 1
f 5/1/1 3/2/2 1/3/3
f 3/4/2 8/5/4 4/6/5
f 7/7/6 6/8/7 8/5/4
f 2/9/8 8/10/4 6/8/7
f 1/11/3 4/12/5 2/13/8
f 5/14/1 2/9/8 6/15/7
f 5/1/1 7/16/6 3/2/2
f 3/4/2 7/7/6 8/5/4
f 7/7/6 5/17/1 6/8/7
f 2/9/8 4/18/5 8/10/4
f 1/11/3 3/19/2 4/12/5
f 5/14/1 1/20/3 2/9/8
